<svg width="108" height="108" viewBox="0 0 108 108" fill="none" xmlns="http://www.w3.org/2000/svg">
<rect width="108" height="108" rx="30" fill="white"/>
<path d="M83.4532 83.3236H62.9966C63.1822 75.7162 63.275 67.9696 63.275 60.0839C63.275 52.1981 62.8884 43.2455 62.1153 33.226C63.1667 31.0303 64.6356 27.6905 66.522 23.2064C66.7385 22.7116 67.2951 22.0931 68.192 21.351C69.0888 20.5778 69.8773 20.1913 70.5577 20.1913H84.752C84.5355 24.2733 84.4273 28.8038 84.4273 33.7826C84.4273 49.3685 85.4633 64.8617 87.5352 80.2621C87.5352 80.6641 87.0404 81.2826 86.0508 82.1176C85.0613 82.9216 84.1954 83.3236 83.4532 83.3236ZM51.6319 80.9115C51.4154 81.3754 50.9361 81.9011 50.1939 82.4886C49.4517 83.0453 48.8642 83.3236 48.4312 83.3236H41.0557C39.7569 75.6234 38.0715 67.5212 35.9996 59.017C33.9276 50.5127 31.8712 43.5083 29.8301 38.0038C29.9538 37.2925 30.3559 35.1278 31.0362 31.5096C31.7475 27.8606 32.2422 25.0928 32.5206 23.2064C32.6133 22.7735 33.1391 22.1705 34.0977 21.3973C35.0564 20.5933 35.8759 20.1913 36.5562 20.1913H50.0547C52.1885 32.5611 53.9512 40.9261 55.3428 45.2865C56.7654 49.6159 58.0642 53.0795 59.2393 55.6771C56.2706 64.5524 53.7348 72.9639 51.6319 80.9115ZM28.8096 49.786C28.9643 57.5171 29.2426 63.4237 29.6446 67.5057C30.0775 71.5878 30.9898 75.8399 32.3814 80.2621C32.3814 80.6641 31.8712 81.2826 30.8506 82.1176C29.8611 82.9216 28.9952 83.3236 28.253 83.3236H13.4556C16.5172 76.0254 18.9138 70.1189 20.6456 65.6039C22.3773 61.058 23.7535 56.7904 24.774 52.8011C24.774 52.3991 25.2688 51.7961 26.2584 50.9921C27.2479 50.188 28.0984 49.786 28.8096 49.786Z" fill="#5956E9"/>
<line x1="22.9666" y1="37.942" x2="93.7254" y2="80.3972" stroke="white" stroke-width="14"/>
</svg>
