<svg width="197" height="60" viewBox="0 0 197 60" fill="none" xmlns="http://www.w3.org/2000/svg">
<path d="M57.25 6.65V59H46.75V24.95L32.725 59H24.775L10.675 24.95V59H0.175V6.65H12.1L28.75 45.575L45.4 6.65H57.25ZM72.9561 12.5C71.1061 12.5 69.5561 11.925 68.3061 10.775C67.1061 9.575 66.5061 8.1 66.5061 6.35C66.5061 4.6 67.1061 3.15 68.3061 2C69.5561 0.799997 71.1061 0.199997 72.9561 0.199997C74.8061 0.199997 76.3311 0.799997 77.5311 2C78.7811 3.15 79.4061 4.6 79.4061 6.35C79.4061 8.1 78.7811 9.575 77.5311 10.775C76.3311 11.925 74.8061 12.5 72.9561 12.5ZM78.1311 17.45V59H67.6311V17.45H78.1311ZM106.955 59.675C102.955 59.675 99.3551 58.8 96.1551 57.05C92.9551 55.25 90.4301 52.725 88.5801 49.475C86.7801 46.225 85.8801 42.475 85.8801 38.225C85.8801 33.975 86.8051 30.225 88.6551 26.975C90.5551 23.725 93.1301 21.225 96.3801 19.475C99.6301 17.675 103.255 16.775 107.255 16.775C111.255 16.775 114.88 17.675 118.13 19.475C121.38 21.225 123.93 23.725 125.78 26.975C127.68 30.225 128.63 33.975 128.63 38.225C128.63 42.475 127.655 46.225 125.705 49.475C123.805 52.725 121.205 55.25 117.905 57.05C114.655 58.8 111.005 59.675 106.955 59.675ZM106.955 50.525C108.855 50.525 110.63 50.075 112.28 49.175C113.98 48.225 115.33 46.825 116.33 44.975C117.33 43.125 117.83 40.875 117.83 38.225C117.83 34.275 116.78 31.25 114.68 29.15C112.63 27 110.105 25.925 107.105 25.925C104.105 25.925 101.58 27 99.5301 29.15C97.5301 31.25 96.5301 34.275 96.5301 38.225C96.5301 42.175 97.5051 45.225 99.4551 47.375C101.455 49.475 103.955 50.525 106.955 50.525ZM175.557 17.45V59H164.982V53.75C163.632 55.55 161.857 56.975 159.657 58.025C157.507 59.025 155.157 59.525 152.607 59.525C149.357 59.525 146.482 58.85 143.982 57.5C141.482 56.1 139.507 54.075 138.057 51.425C136.657 48.725 135.957 45.525 135.957 41.825V17.45H146.457V40.325C146.457 43.625 147.282 46.175 148.932 47.975C150.582 49.725 152.832 50.6 155.682 50.6C158.582 50.6 160.857 49.725 162.507 47.975C164.157 46.175 164.982 43.625 164.982 40.325V17.45H175.557ZM196.417 3.5V59H185.917V3.5H196.417Z" fill="#27272E"/>
</svg>
